<?xml version="1.0" ?><!DOCTYPE svg  PUBLIC '-//W3C//DTD SVG 1.1//EN'  'http://www.w3.org/Graphics/SVG/1.1/DTD/svg11.dtd'><svg enable-background="new 0 0 512 512" height="512px" id="Layer_1" version="1.1" viewBox="0 0 512 512" width="512px" x="0px" xml:space="preserve" xmlns="http://www.w3.org/2000/svg" xmlns:xlink="http://www.w3.org/1999/xlink" y="0px"><path d="M463.281,195.875l-0.124-60.144l-26.063-14.969L255.453,16.456L74.281,121.625l-26,15.094l0.141,59.55  l0.422,179.981l155.062,89.062l26.562,15.25l25.609,14.688l0.469,0.294l52.047-30.2l155.125-90.062L463.281,195.875z   M255.578,76.625l129.484,74.344l-129.142,74.987l-129.5-74.375L255.578,76.625z M100.844,346.031l-0.359-149.281L229.5,270.831  l0.359,149.294L100.844,346.031z M282.406,420.281l-0.344-149.312L411.219,196l0.344,149.344L282.406,420.281z" fill="#000000"/></svg>
